<svg width="167" height="32" viewBox="0 0 167 32" fill="none" xmlns="http://www.w3.org/2000/svg">
<path d="M5.54718 5.53819C5.62346 5.58062 28.4331 20.0316 31.1641 22.5693H15.2355C7.83194 22.5693 4.36474 12.2758 3.25859 4.91726L1.56503 4.4159C-0.170486 3.7834 0.00496259 0 0.00496259 0C8.29348 1.88206 16.788 2.13275 22.3187 3.8991C28.9099 6.01256 31.7401 9.91166 31.7401 15.5617V18.7974C23.2723 11.6395 13.481 8.31886 5.54718 5.53819Z" fill="#3CA835"/>
<path d="M13.5764 31.2083C15.148 31.2083 16.4219 29.9201 16.4219 28.3312C16.4219 26.7422 15.148 25.4541 13.5764 25.4541C12.0049 25.4541 10.731 26.7422 10.731 28.3312C10.731 29.9201 12.0049 31.2083 13.5764 31.2083Z" fill="#3CA835"/>
<path d="M25.9427 31.2083C27.5142 31.2083 28.7881 29.9201 28.7881 28.3312C28.7881 26.7422 27.5142 25.4541 25.9427 25.4541C24.3711 25.4541 23.0972 26.7422 23.0972 28.3312C23.0972 29.9201 24.3711 31.2083 25.9427 31.2083Z" fill="#3CA835"/>
<path d="M53.318 15.4885C53.3114 15.2197 53.2859 14.9516 53.2417 14.6864C53.1977 14.4223 53.1261 14.1638 53.0281 13.915C52.9227 13.647 52.7787 13.3962 52.6009 13.1707C52.4349 12.9689 52.2497 12.7842 52.0478 12.6192C51.822 12.4312 51.5851 12.2573 51.3384 12.0985C51.079 11.9288 50.7777 11.7514 50.4344 11.5586L49.3244 10.9261L49.2481 10.8798C48.573 10.4942 48.0313 10.1625 47.6461 9.90022C47.3944 9.7574 47.1687 9.57219 46.9786 9.35257C46.96 9.28942 46.9459 9.22497 46.9366 9.15974C46.9366 9.05561 46.9366 8.92448 46.9099 8.77407V7.51294H43.4389C43.4389 7.51294 43.4389 8.72008 43.4389 8.97462C43.4401 9.24619 43.4644 9.51715 43.5114 9.78453C43.5554 10.049 43.6284 10.3077 43.7288 10.5559C43.8419 10.8192 43.988 11.0668 44.1636 11.2925C44.3305 11.5056 44.5212 11.6984 44.732 11.8671C44.9532 12.047 45.185 12.2132 45.4262 12.3646C45.6779 12.5228 45.9754 12.7002 46.3111 12.8969L47.4821 13.5795C48.1648 13.9652 48.7179 14.3045 49.1184 14.5668C49.3352 14.6745 49.5199 14.8382 49.6539 15.0414C49.7879 15.2446 49.8663 15.4801 49.8813 15.7238C49.8813 15.9012 49.8813 16.1095 49.8813 16.3602V19.2951C49.8813 20.1134 49.5598 20.8981 48.9875 21.4767C48.4153 22.0554 47.6391 22.3804 46.8298 22.3804C46.0205 22.3804 45.2444 22.0554 44.6721 21.4767C44.0999 20.8981 43.7784 20.1134 43.7784 19.2951V17.8951H40.2959V19.2951C40.2959 20.9316 40.9389 22.5012 42.0834 23.6584C43.2279 24.8156 44.7802 25.4658 46.3988 25.4658H47.2647C48.067 25.4688 48.8619 25.3113 49.6037 25.0023C50.3455 24.6933 51.0195 24.2388 51.5868 23.6652C52.1541 23.0916 52.6036 22.4102 52.9092 21.6601C53.2148 20.9101 53.3706 20.1063 53.3676 19.2951V16.3447C53.3421 16.0362 53.3256 15.7508 53.318 15.4885Z" fill="#314155"/>
<path d="M91.2933 19.6728V25.2534H87.8604V19.1984C87.7803 17.4012 85.5222 16.1671 83.6875 18.161C83.626 18.2372 83.5923 18.3326 83.5922 18.431V22.7697H80.1593V18.4387C80.157 18.3393 80.1206 18.2439 80.0563 18.1687C78.2026 16.1324 75.8606 17.4514 75.8606 19.3064V25.2534H72.3933V13.4211C72.3984 11.8497 73.0204 10.3446 74.1226 9.23663C75.2248 8.12869 76.717 7.50862 78.2712 7.51272H89.306V10.5981H79.0379C78.6223 10.5981 78.2108 10.6809 77.8269 10.8418C77.443 11.0027 77.0943 11.2386 76.8006 11.5358C76.5069 11.8331 76.2741 12.1861 76.1154 12.5744C75.9567 12.9627 75.8753 13.3789 75.8758 13.7991V14.4547C76.6635 14.1304 77.5141 13.9919 78.3627 14.0498C79.3481 14.1115 80.2985 14.442 81.1129 15.0062C81.384 15.1883 81.6392 15.3935 81.8757 15.6194C82.8199 14.6946 84.058 14.1384 85.3696 14.0498H86.1325C87.5366 14.1532 88.8498 14.7908 89.8075 15.8343C90.7651 16.8777 91.296 18.2493 91.2933 19.6728Z" fill="#314155"/>
<path d="M107.466 7.28149C106.023 7.28232 104.635 7.84753 103.595 8.85887C102.806 8.09201 101.813 7.57616 100.737 7.37537C99.661 7.17458 98.5506 7.2977 97.5434 7.72945C96.5362 8.16119 95.6766 8.88254 95.0714 9.80393C94.4662 10.7253 94.1419 11.8061 94.1389 12.9122V25.2228H97.6062V12.5266C97.6062 11.9538 97.8312 11.4044 98.2318 10.9994C98.6323 10.5944 99.1757 10.3668 99.7422 10.3668C100.309 10.3668 100.852 10.5944 101.253 10.9994C101.653 11.4044 101.878 11.9538 101.878 12.5266V19.7077H105.311V12.5266C105.334 11.9701 105.569 11.4442 105.967 11.0587C106.365 10.6733 106.894 10.4581 107.445 10.4581C107.996 10.4581 108.526 10.6733 108.923 11.0587C109.321 11.4442 109.556 11.9701 109.579 12.5266V25.2189H113.035V12.9122C113.034 11.4192 112.447 9.98758 111.403 8.93183C110.359 7.87608 108.943 7.28252 107.466 7.28149Z" fill="#314155"/>
<path d="M140.017 15.0682V14.883C140.009 14.6427 139.986 14.4031 139.949 14.1657C139.913 13.9477 139.854 13.7344 139.773 13.5293C139.688 13.3143 139.572 13.113 139.43 12.9316C139.288 12.7599 139.13 12.6035 138.957 12.4649C138.752 12.2949 138.536 12.1378 138.312 11.9944C138.053 11.8324 137.763 11.655 137.435 11.4699C137.107 11.2848 136.725 11.0649 136.291 10.8181L136.241 10.7872C135.562 10.4016 135.013 10.0583 134.605 9.78837C134.306 9.60734 134.036 9.38248 133.804 9.12117C133.751 9.05982 133.714 8.98729 133.693 8.90905C133.662 8.81121 133.64 8.71043 133.628 8.60823C133.609 8.45725 133.597 8.30534 133.594 8.15314C133.594 7.97573 133.594 7.76748 133.594 7.49365H131.37C131.37 7.79447 131.37 8.06829 131.37 8.32668C131.376 8.56681 131.397 8.80635 131.431 9.04403C131.466 9.26048 131.528 9.47166 131.614 9.67267C131.702 9.88813 131.82 10.0895 131.965 10.2705C132.103 10.4464 132.26 10.6056 132.434 10.7448C132.634 10.9115 132.846 11.0636 133.068 11.1999C133.315 11.358 133.602 11.5277 133.933 11.7167L135.078 12.3801L135.112 12.3993C135.814 12.785 136.367 13.1398 136.783 13.4059C137.088 13.5898 137.367 13.8157 137.61 14.077C137.795 14.3715 137.865 14.7244 137.809 15.0682V19.8042V20.0741C137.824 20.5215 137.75 20.9674 137.591 21.3852C137.432 21.803 137.191 22.1841 136.884 22.506C136.576 22.8279 136.207 23.0838 135.8 23.2587C135.392 23.4335 134.954 23.5236 134.511 23.5236C134.069 23.5236 133.63 23.4335 133.223 23.2587C132.815 23.0838 132.447 22.8279 132.139 22.506C131.831 22.1841 131.591 21.803 131.432 21.3852C131.273 20.9674 131.199 20.5215 131.214 20.0741V17.8797H128.975V19.646C128.947 20.3979 129.07 21.1476 129.335 21.8505C129.601 22.5533 130.004 23.1948 130.52 23.7366C131.036 24.2784 131.655 24.7094 132.34 25.0037C133.025 25.2981 133.761 25.4498 134.506 25.4498C135.25 25.4498 135.986 25.2981 136.671 25.0037C137.356 24.7094 137.975 24.2784 138.491 23.7366C139.007 23.1948 139.41 22.5533 139.676 21.8505C139.941 21.1476 140.064 20.3979 140.036 19.646V15.7238C140.032 15.4885 140.025 15.2687 140.017 15.0682Z" fill="#314155"/>
<path d="M161.477 7.28906C160.751 7.28856 160.033 7.43262 159.362 7.71304C158.692 7.99346 158.082 8.40473 157.569 8.92335C157.056 9.44197 156.649 10.0578 156.371 10.7356C156.093 11.4133 155.95 12.1398 155.95 12.8735V25.2149H158.178V12.457C158.178 11.5722 158.525 10.7237 159.144 10.0981C159.763 9.47245 160.602 9.12098 161.477 9.12098C162.352 9.12098 163.191 9.47245 163.81 10.0981C164.429 10.7237 164.776 11.5722 164.776 12.457V25.2265H167V12.8851C167.002 12.1508 166.86 11.4233 166.583 10.7445C166.306 10.0656 165.899 9.44859 165.386 8.9288C164.873 8.40901 164.264 7.99662 163.593 7.71525C162.922 7.43389 162.203 7.28906 161.477 7.28906Z" fill="#314155"/>
<path d="M149.733 15.4808C149.733 14.8329 149.733 13.4638 149.733 13.2517C149.726 13.0109 149.7 12.771 149.656 12.5343C149.624 12.3149 149.566 12.1001 149.485 11.8941C149.399 11.6826 149.284 11.4851 149.141 11.3079C149.003 11.1317 148.845 10.9713 148.672 10.8297C148.489 10.6831 148.272 10.525 148.028 10.363C147.944 10.3129 147.295 9.90793 147.108 9.78066C146.804 9.60171 146.531 9.37373 146.3 9.10574C146.249 9.04564 146.21 8.97625 146.185 8.90134C146.166 8.8242 146.143 8.72393 146.124 8.60052C146.104 8.45093 146.094 8.3002 146.094 8.14928C146.094 7.97187 146.094 7.76362 146.094 7.49365H143.866C143.866 7.79447 143.866 8.06444 143.866 8.31127C143.869 8.55175 143.89 8.79162 143.931 9.0286C143.965 9.24934 144.024 9.46542 144.106 9.67267C144.197 9.88576 144.318 10.0845 144.465 10.2627C144.598 10.4403 144.753 10.5998 144.927 10.7371C145.129 10.9019 145.342 11.0539 145.564 11.1922L145.945 11.4197C146.086 11.5046 146.38 11.7051 146.494 11.7823C146.798 11.9666 147.079 12.1881 147.33 12.4418C147.378 12.506 147.415 12.5776 147.44 12.6539C147.47 12.7556 147.49 12.8604 147.497 12.9663C147.497 13.1013 147.497 13.2517 147.497 13.4368C147.497 13.564 147.497 14.6902 147.497 15.3651H147.261C145.989 15.3661 144.769 15.8778 143.87 16.7875C142.971 17.6973 142.466 18.9307 142.466 20.2168V20.6025C142.466 21.8882 142.971 23.1213 143.871 24.0304C144.77 24.9396 145.989 25.4503 147.261 25.4503H148.714C149.986 25.4503 151.205 24.9396 152.104 24.0304C153.004 23.1213 153.509 21.8882 153.509 20.6025V20.2168C153.508 19.1102 153.134 18.0369 152.447 17.1754C151.76 16.3139 150.802 15.7159 149.733 15.4808ZM151.293 20.8108C151.293 21.5506 151.002 22.2603 150.485 22.7838C149.968 23.3073 149.267 23.602 148.535 23.603H147.448C147.085 23.603 146.727 23.5307 146.392 23.3903C146.058 23.2499 145.754 23.0441 145.498 22.7847C145.242 22.5253 145.039 22.2174 144.901 21.8787C144.763 21.54 144.693 21.1771 144.694 20.8108V19.9584C144.694 19.5929 144.765 19.231 144.904 18.8934C145.042 18.5558 145.245 18.2491 145.501 17.9908C145.756 17.7326 146.06 17.5278 146.394 17.3883C146.728 17.2488 147.086 17.1773 147.448 17.1778H148.535C149.265 17.1778 149.965 17.4705 150.482 17.9917C150.999 18.513 151.291 19.2202 151.293 19.9584V20.8108Z" fill="#314155"/>
<path d="M125.065 18.1726C125.332 18.0839 126.488 17.5478 126.488 15.8586C126.488 14.1693 125.344 13.4597 125.065 13.3826C125.304 13.2557 125.518 13.0873 125.698 12.8851C126.081 12.4237 126.302 11.8475 126.328 11.246C126.355 10.5631 126.119 9.89628 125.668 9.38705C125.105 8.86753 124.417 8.50705 123.673 8.34189C123.246 8.23776 119.02 7.76725 117.334 7.57056V9.32535C118.886 9.4719 121.61 9.71102 122.651 9.9617C122.891 10.0176 123.123 10.1086 123.337 10.2317C123.514 10.3219 123.672 10.4448 123.803 10.5942C123.949 10.7832 124.031 11.0141 124.039 11.2537C124.033 11.4674 123.95 11.6716 123.807 11.8283C123.703 11.9788 123.574 12.1094 123.425 12.214C123.264 12.3262 123.086 12.4121 122.899 12.4685C122.703 12.5272 122.5 12.5558 122.296 12.5534H120.008V14.3776L122.479 14.4123C122.667 14.4116 122.854 14.4349 123.036 14.4817C123.222 14.521 123.4 14.5914 123.562 14.69C123.745 14.8145 123.892 14.985 123.989 15.1845C124.086 15.3841 124.129 15.6058 124.116 15.8277C124.131 16.0578 124.086 16.288 123.985 16.4948C123.884 16.7015 123.73 16.8772 123.54 17.004C123.447 17.0635 123.352 17.1176 123.254 17.166L122.945 17.274C122.71 17.3354 122.469 17.3652 122.227 17.3627L120.008 17.3357V19.1676L122.578 19.2023C122.811 19.1993 123.042 19.2385 123.261 19.318C123.568 19.4444 123.833 19.6567 124.025 19.9299C124.217 20.2031 124.328 20.526 124.344 20.8607C124.351 21.2287 124.283 21.5943 124.147 21.9357C124.011 22.277 123.808 22.5871 123.551 22.8476C123.293 23.1081 122.987 23.3136 122.65 23.452C122.312 23.5903 121.951 23.6586 121.587 23.6529H120.496C120.134 23.6524 119.775 23.5797 119.441 23.4391C119.107 23.2984 118.804 23.0926 118.548 22.8332C118.293 22.5739 118.09 22.2662 117.953 21.9277C117.815 21.5893 117.745 21.2266 117.746 20.8607V20.2397H115.518V20.5791C115.516 21.8612 116.016 23.092 116.909 24.0026C117.801 24.9131 119.014 25.4294 120.282 25.4385H121.735C123.004 25.4275 124.217 24.9132 125.114 24.0064C126.01 23.0996 126.519 21.873 126.53 20.5907C126.514 20.0938 126.371 19.6096 126.114 19.1856C125.857 18.7616 125.496 18.4125 125.065 18.1726Z" fill="#314155"/>
<path d="M68.3276 15.7585C68.0608 15.4836 67.7639 15.2404 67.4427 15.0334C67.2884 14.9252 67.1265 14.8285 66.9583 14.7442C66.9811 14.6786 67.0079 14.6092 67.0269 14.5359C67.1472 14.1824 67.2065 13.8106 67.2024 13.4367V11.4197C67.1677 10.3099 66.7072 9.2574 65.9183 8.48499C65.1295 7.71257 64.0743 7.28094 62.9761 7.28149H60.7791C60.718 7.28149 60.6532 7.28149 60.5845 7.28149H60.4281C59.398 7.40229 58.4475 7.9008 57.7565 8.68262C57.0655 9.46445 56.682 10.4753 56.6787 11.5238V12.5266H60.1116V12.1872C60.1116 11.7003 60.3029 11.2334 60.6434 10.8891C60.9838 10.5448 61.4457 10.3514 61.9272 10.3514C62.4087 10.3514 62.8705 10.5448 63.211 10.8891C63.5515 11.2334 63.7428 11.7003 63.7428 12.1872V13.564C63.7457 13.6261 63.7337 13.6881 63.7078 13.7445C63.6818 13.8009 63.6428 13.8501 63.594 13.888C63.4844 13.9997 63.3405 14.0704 63.1859 14.0885H61.355C60.6062 14.0688 59.8609 14.2009 59.1633 14.477C58.4658 14.7531 57.8299 15.1677 57.2933 15.6963C56.7568 16.2249 56.3303 16.8567 56.0391 17.5546C55.7479 18.2525 55.5979 19.0023 55.5979 19.7598C55.5979 20.5172 55.7479 21.267 56.0391 21.9649C56.3303 22.6628 56.7568 23.2947 57.2933 23.8233C57.8299 24.3518 58.4658 24.7664 59.1633 25.0426C59.8609 25.3187 60.6062 25.4508 61.355 25.431H64.3378C64.437 25.431 64.5285 25.431 64.6277 25.431C64.8299 25.431 65.0321 25.3963 65.2304 25.3693C65.8115 25.2691 66.3746 25.082 66.9011 24.8139C67.6875 24.4061 68.3674 23.8161 68.8854 23.0919C69.4034 22.3678 69.7447 21.5302 69.8815 20.6473C70.0184 19.7644 69.9469 18.8613 69.6728 18.0117C69.3988 17.1621 68.93 16.39 68.3047 15.7585H68.3276ZM64.3607 22.3148C64.2193 22.3361 64.0765 22.3477 63.9335 22.3495H61.8051C61.6621 22.3479 61.5194 22.3363 61.3779 22.3148C60.9134 22.2359 60.4796 22.0286 60.1245 21.7158C59.7694 21.4031 59.5068 20.997 59.3658 20.5426C59.2248 20.0883 59.211 19.6033 59.3258 19.1415C59.4405 18.6796 59.6795 18.2589 60.0162 17.9259C60.389 17.5447 60.8705 17.2911 61.3932 17.2009C61.5346 17.1794 61.6774 17.1678 61.8204 17.1662H63.9488C64.0918 17.168 64.2345 17.1796 64.376 17.2009C64.9699 17.3065 65.5082 17.6196 65.8971 18.0855C66.2861 18.5513 66.501 19.1405 66.5044 19.7501C66.5061 20.3649 66.2913 20.9601 65.8986 21.4294C65.5058 21.8986 64.9606 22.2111 64.3607 22.311V22.3148Z" fill="#314155"/>
</svg>
